:FULLY-SPECIFIED
:FORCE-ALL-JOINTS-BE-3DOF
:DEGREES
136
root 7.83102 16.735 -26.3522 -9.34799 12.3702 2.57596
lfemur -6.23625 15.6219 -18.9411
ltibia 32.3203 -0 0
lfoot -15.8039 -6.51249 -0.0830457
ltoes 20.7374 -0 0
rfemur -86.8096 -27.6005 39.3104
rtibia 71.7632 -0 0
rfoot 4.91086 22.0113 0.0156819
rtoes -36.5813 0 0
lowerback 16.1254 -3.46943 -6.69391
upperback 5.24954 -5.60882 -0.496306
thorax -2.8699 -2.80387 4.12729
lowerneck -12.2594 -1.54868 -0.172709
upperneck 0.996739 -2.17811 2.9607
head 2.5129 -0.97746 0.851749
lclavicle -6.60959e-15 2.14687e-14 0
lhumerus -37.9059 -23.0454 92.4513
lradius 49.1797 -0 0
lwrist 11.2521 0 0
lhand 13.6741 8.14491 0.238251
lfingers 7.12502 -0 0
lthumb 38.5439 33.3092 0.0543812
rclavicle -6.60959e-15 2.14687e-14 0
rhumerus -46.4927 -14.518 -59.357
rradius 79.3424 -0 0
rwrist -9.66259 0 0
rhand -6.27112 -31.3326 3.97353
rfingers 7.12502 -0 0
rthumb 19.5121 -58.7075 4.12061
137
root 7.80019 16.7175 -26.3505 -9.07796 13.0662 2.59809
lfemur -6.8238 16.2597 -18.8576
ltibia 32.8449 -0 0
lfoot -16.0173 -5.9477 -0.0876315
ltoes 19.117 -0 0
rfemur -87.4918 -27.9771 39.5765
rtibia 75.7858 -0 0
rfoot 6.1285 22.0322 0.0171916
rtoes -36.3005 0 0
lowerback 16.0616 -3.69181 -6.89166
upperback 5.18763 -5.93411 -0.627402
thorax -2.86116 -2.96357 4.14283
lowerneck -12.225 -1.62246 -0.309178
upperneck 0.917828 -2.26409 3.16939
head 2.48863 -1.01491 0.938735
lclavicle -6.60959e-15 2.14687e-14 0
lhumerus -37.5432 -24.0513 92.5389
lradius 48.9173 -0 0
lwrist 10.9821 0 0
lhand 14.6645 8.50126 0.248753
lfingers 7.12502 -0 0
lthumb 39.4739 33.3726 0.0586719
rclavicle -6.60959e-15 2.14687e-14 0
rhumerus -47.3065 -15.1075 -60.2393
rradius 80.8152 -0 0
rwrist -9.51355 0 0
rhand -9.14722 -33.3258 4.14613
rfingers 7.12502 -0 0
rthumb 16.7386 -60.8732 4.31316
138
root 7.76675 16.6989 -26.3482 -8.77902 13.7746 2.6129
lfemur -7.45878 16.8716 -18.772
ltibia 33.3904 -0 0
lfoot -16.2381 -5.37424 -0.0899146
ltoes 17.4731 -0 0
rfemur -88.0766 -28.3464 39.7528
rtibia 79.9239 -0 0
rfoot 7.42884 22.0537 0.0182576
rtoes -35.9001 0 0
lowerback 15.97 -3.9109 -7.0788
upperback 5.11335 -6.25151 -0.754762
thorax -2.85065 -3.11905 4.15464
lowerneck -12.1863 -1.70432 -0.443498
upperneck 0.833778 -2.36073 3.37783
head 2.46188 -1.05784 1.02483
lclavicle -6.60959e-15 2.14687e-14 0
lhumerus -37.1915 -25.0525 92.6279
lradius 48.6497 -0 0
lwrist 10.7148 0 0
lhand 15.6636 8.86655 0.252581
lfingers 7.12502 -0 0
lthumb 40.412 33.4426 0.0615673
rclavicle -6.60959e-15 2.14687e-14 0
rhumerus -48.118 -15.689 -61.155
rradius 82.2578 -0 0
rwrist -9.33368 0 0
rhand -12.1163 -35.3308 4.20629
rfingers 7.12502 -0 0
rthumb 13.8739 -63.0606 4.38893
139
root 7.73056 16.6792 -26.3451 -8.45439 14.4877 2.62076
lfemur -8.13441 17.4512 -18.6854
ltibia 33.9507 -0 0
lfoot -16.4639 -4.79836 -0.0897461
ltoes 15.8235 -0 0
rfemur -88.5559 -28.7063 39.8357
rtibia 84.1326 -0 0
rfoot 8.79773 22.0756 0.0188097
rtoes -35.3844 0 0
lowerback 15.8514 -4.12444 -7.25315
upperback 5.02743 -6.55762 -0.876912
thorax -2.83846 -3.26863 4.16259
lowerneck -12.1436 -1.79334 -0.574224
upperneck 0.745449 -2.46695 3.5838
head 2.43292 -1.1058 1.10911
lclavicle -6.60959e-15 2.14687e-14 0
lhumerus -36.8549 -26.0381 92.7176
lradius 48.38 -0 0
lwrist 10.4532 0 0
lhand 16.6604 9.23668 0.249483
lfingers 7.12502 -0 0
lthumb 41.348 33.5184 0.0628782
rclavicle -6.60959e-15 2.14687e-14 0
rhumerus -48.9183 -16.2567 -62.0948
rradius 83.6543 -0 0
rwrist -9.12493 0 0
rhand -15.1414 -37.3193 4.14976
rfingers 7.12502 -0 0
rthumb 10.9544 -65.2392 4.34261
140
root 7.69149 16.6582 -26.3406 -8.10733 15.1977 2.62193
lfemur -8.84384 17.992 -18.5986
ltibia 34.5201 -0 0
lfoot -16.6922 -4.22633 -0.0870728
ltoes 14.1861 -0 0
rfemur -88.9218 -29.054 39.8215
rtibia 88.3666 -0 0
rfoot 10.221 22.0976 0.0187984
rtoes -34.7579 0 0
lowerback 15.7068 -4.33011 -7.41253
upperback 4.93058 -6.84898 -0.992399
thorax -2.82469 -3.41061 4.16654
lowerneck -12.0973 -1.88864 -0.699909
upperneck 0.653719 -2.58168 3.78506
head 2.40203 -1.1583 1.19063
lclavicle -6.60959e-15 2.14687e-14 0
lhumerus -36.5374 -26.997 92.8079
lradius 48.1111 -0 0
lwrist 10.2001 0 0
lhand 17.644 9.60755 0.239491
lfingers 7.12502 -0 0
lthumb 42.2717 33.5993 0.0624669
rclavicle -6.60959e-15 2.14687e-14 0
rhumerus -49.6987 -16.8042 -63.0492
rradius 84.9891 -0 0
rwrist -8.88928 0 0
rhand -18.1854 -39.2624 3.97739
rfingers 7.12502 -0 0
rthumb 8.01667 -67.3783 4.17422
141
root 7.64938 16.6358 -26.3342 -7.74114 15.8971 2.61644
lfemur -9.58016 18.4872 -18.5121
ltibia 35.0924 -0 0
lfoot -16.9206 -3.6644 -0.0819404
ltoes 12.5789 -0 0
rfemur -89.166 -29.3862 39.7062
rtibia 92.581 -0 0
rfoot 11.6845 22.1194 0.0181964
rtoes -34.0249 0 0
lowerback 15.5369 -4.52556 -7.55482
upperback 4.82347 -7.12217 -1.09979
thorax -2.80944 -3.5433 4.16637
lowerneck -12.0479 -1.98931 -0.819104
upperneck 0.559487 -2.7039 3.97937
head 2.36952 -1.21488 1.26847
lclavicle -6.60959e-15 2.14687e-14 0
lhumerus -36.2432 -27.9185 92.8988
lradius 47.8458 -0 0
lwrist 9.95843 0 0
lhand 18.6034 9.97507 0.222913
lfingers 7.12502 -0 0
lthumb 43.1728 33.6845 0.0602525
rclavicle -6.60959e-15 2.14687e-14 0
rhumerus -50.4509 -17.3245 -64.0094
rradius 86.2466 -0 0
rwrist -8.62867 0 0
rhand -21.2119 -41.1319 3.69508
rfingers 7.12502 -0 0
rthumb 5.09672 -69.4473 3.88912
